<svg width="208" height="16" viewBox="0 0 208 16" fill="none" xmlns="http://www.w3.org/2000/svg">
<path d="M4.08301 15.4545C3.43528 15.4545 2.87846 15.3712 2.41255 15.2045C1.94664 15.0417 1.55839 14.8258 1.24778 14.5568C0.940962 14.2917 0.696644 14.0076 0.514826 13.7045L1.58301 12.9545C1.70422 13.1136 1.85763 13.2955 2.04324 13.5C2.22884 13.7083 2.48263 13.8883 2.8046 14.0398C3.13036 14.1951 3.55649 14.2727 4.08301 14.2727C4.78755 14.2727 5.36899 14.1023 5.82733 13.7614C6.28566 13.4205 6.51483 12.8864 6.51483 12.1591V10.3864H6.40119C6.30271 10.5455 6.16255 10.7424 5.98074 10.9773C5.8027 11.2083 5.54513 11.4148 5.20801 11.5966C4.87467 11.7746 4.42392 11.8636 3.85574 11.8636C3.15119 11.8636 2.51861 11.697 1.95801 11.3636C1.40119 11.0303 0.959902 10.5455 0.634144 9.90909C0.312175 9.27273 0.15119 8.5 0.15119 7.59091C0.15119 6.69697 0.308387 5.91856 0.622781 5.25568C0.937175 4.58901 1.37467 4.07386 1.93528 3.71023C2.49589 3.3428 3.14361 3.15909 3.87846 3.15909C4.44664 3.15909 4.8974 3.25379 5.23074 3.44318C5.56786 3.62879 5.82543 3.84091 6.00346 4.07955C6.18528 4.31439 6.32543 4.50758 6.42392 4.65909H6.56028V3.27273H7.85574V12.25C7.85574 13 7.68528 13.6098 7.34437 14.0795C7.00725 14.553 6.5527 14.8996 5.98074 15.1193C5.41255 15.3428 4.77998 15.4545 4.08301 15.4545ZM4.03755 10.6591C4.57543 10.6591 5.02998 10.536 5.40119 10.2898C5.7724 10.0436 6.0546 9.68939 6.24778 9.22727C6.44096 8.76515 6.53755 8.21212 6.53755 7.56818C6.53755 6.93939 6.44286 6.38447 6.25346 5.90341C6.06407 5.42235 5.78377 5.04545 5.41255 4.77273C5.04134 4.5 4.58301 4.36364 4.03755 4.36364C3.46937 4.36364 2.99589 4.50758 2.6171 4.79545C2.2421 5.08333 1.9599 5.4697 1.77051 5.95455C1.5849 6.43939 1.4921 6.97727 1.4921 7.56818C1.4921 8.17424 1.5868 8.71023 1.77619 9.17614C1.96937 9.63826 2.25346 10.0019 2.62846 10.267C3.00725 10.5284 3.47695 10.6591 4.03755 10.6591ZM15.8103 8.43182V3.27273H17.1512V12H15.8103V10.5227H15.7194C15.5148 10.9659 15.1966 11.3428 14.7648 11.6534C14.333 11.9602 13.7876 12.1136 13.1285 12.1136C12.583 12.1136 12.0982 11.9943 11.6739 11.7557C11.2497 11.5133 10.9163 11.1496 10.6739 10.6648C10.4315 10.1761 10.3103 9.56061 10.3103 8.81818V3.27273H11.6512V8.72727C11.6512 9.36364 11.8292 9.87121 12.1853 10.25C12.5451 10.6288 13.0035 10.8182 13.5603 10.8182C13.8936 10.8182 14.2326 10.733 14.5773 10.5625C14.9258 10.392 15.2175 10.1307 15.4523 9.77841C15.691 9.42614 15.8103 8.97727 15.8103 8.43182ZM25.789 5.22727L24.5844 5.56818C24.5087 5.36742 24.3969 5.17235 24.2492 4.98295C24.1053 4.78977 23.9083 4.63068 23.6583 4.50568C23.4083 4.38068 23.0882 4.31818 22.6981 4.31818C22.164 4.31818 21.7189 4.44129 21.3628 4.6875C21.0106 4.92992 20.8344 5.23864 20.8344 5.61364C20.8344 5.94697 20.9556 6.21023 21.1981 6.40341C21.4405 6.59659 21.8193 6.75758 22.3344 6.88636L23.6299 7.20455C24.4102 7.39394 24.9916 7.68371 25.3742 8.07386C25.7568 8.46023 25.9481 8.95833 25.9481 9.56818C25.9481 10.0682 25.8041 10.5152 25.5162 10.9091C25.2322 11.303 24.8344 11.6136 24.3231 11.8409C23.8117 12.0682 23.217 12.1818 22.539 12.1818C21.6488 12.1818 20.9121 11.9886 20.3287 11.6023C19.7454 11.2159 19.3761 10.6515 19.2208 9.90909L20.4935 9.59091C20.6147 10.0606 20.8439 10.4129 21.181 10.6477C21.5219 10.8826 21.967 11 22.5162 11C23.1412 11 23.6375 10.8674 24.0049 10.6023C24.3761 10.3333 24.5617 10.0114 24.5617 9.63636C24.5617 9.33333 24.4556 9.07955 24.2435 8.875C24.0314 8.66667 23.7056 8.51136 23.2662 8.40909L21.8117 8.06818C21.0125 7.87879 20.4253 7.58523 20.0503 7.1875C19.6791 6.78598 19.4935 6.28409 19.4935 5.68182C19.4935 5.18939 19.6318 4.75379 19.9083 4.375C20.1886 3.99621 20.5693 3.69886 21.0503 3.48295C21.5352 3.26705 22.0844 3.15909 22.6981 3.15909C23.5617 3.15909 24.2397 3.34848 24.7322 3.72727C25.2284 4.10606 25.5806 4.60606 25.789 5.22727ZM28.9438 12.0909C28.6635 12.0909 28.423 11.9905 28.2222 11.7898C28.0215 11.589 27.9211 11.3485 27.9211 11.0682C27.9211 10.7879 28.0215 10.5473 28.2222 10.3466C28.423 10.1458 28.6635 10.0455 28.9438 10.0455C29.2241 10.0455 29.4646 10.1458 29.6654 10.3466C29.8662 10.5473 29.9665 10.7879 29.9665 11.0682C29.9665 11.2538 29.9192 11.4242 29.8245 11.5795C29.7336 11.7348 29.6105 11.8598 29.4552 11.9545C29.3037 12.0455 29.1332 12.0909 28.9438 12.0909ZM34.941 12.2045C34.3879 12.2045 33.886 12.1004 33.4353 11.892C32.9845 11.6799 32.6266 11.375 32.3614 10.9773C32.0963 10.5758 31.9637 10.0909 31.9637 9.52273C31.9637 9.02273 32.0622 8.61742 32.2591 8.30682C32.4561 7.99242 32.7194 7.74621 33.0489 7.56818C33.3785 7.39015 33.7421 7.25758 34.1398 7.17045C34.5413 7.07955 34.9448 7.00758 35.3501 6.95455C35.8804 6.88636 36.3103 6.83523 36.6398 6.80114C36.9732 6.76326 37.2156 6.70076 37.3671 6.61364C37.5224 6.52652 37.6001 6.375 37.6001 6.15909V6.11364C37.6001 5.55303 37.4466 5.11742 37.1398 4.80682C36.8368 4.49621 36.3766 4.34091 35.7591 4.34091C35.119 4.34091 34.6171 4.48106 34.2535 4.76136C33.8898 5.04167 33.6341 5.34091 33.4864 5.65909L32.2137 5.20455C32.441 4.67424 32.744 4.26136 33.1228 3.96591C33.5054 3.66667 33.922 3.45833 34.3728 3.34091C34.8273 3.2197 35.2743 3.15909 35.7137 3.15909C35.994 3.15909 36.316 3.19318 36.6796 3.26136C37.047 3.32576 37.4012 3.46023 37.7421 3.66477C38.0868 3.86932 38.3728 4.17803 38.6001 4.59091C38.8273 5.00379 38.941 5.55682 38.941 6.25V12H37.6001V10.8182H37.5319C37.441 11.0076 37.2894 11.2102 37.0773 11.4261C36.8652 11.642 36.583 11.8258 36.2307 11.9773C35.8785 12.1288 35.4485 12.2045 34.941 12.2045ZM35.1455 11C35.6758 11 36.1228 10.8958 36.4864 10.6875C36.8538 10.4792 37.1304 10.2102 37.316 9.88068C37.5054 9.55114 37.6001 9.20455 37.6001 8.84091V7.61364C37.5432 7.68182 37.4182 7.74432 37.2251 7.80114C37.0357 7.85417 36.816 7.90151 36.566 7.94318C36.3198 7.98106 36.0792 8.01515 35.8444 8.04545C35.6133 8.07197 35.4258 8.0947 35.2819 8.11364C34.9334 8.15909 34.6076 8.23295 34.3046 8.33523C34.0054 8.43371 33.7629 8.58333 33.5773 8.78409C33.3955 8.98106 33.3046 9.25 33.3046 9.59091C33.3046 10.0568 33.4769 10.4091 33.8216 10.6477C34.1701 10.8826 34.6114 11 35.1455 11ZM42.7293 0.363636V12H41.3884V0.363636H42.7293ZM45.3671 12V0.363636H46.708V4.65909H46.8216C46.9201 4.50758 47.0565 4.31439 47.2307 4.07955C47.4088 3.84091 47.6626 3.62879 47.9921 3.44318C48.3254 3.25379 48.7762 3.15909 49.3444 3.15909C50.0792 3.15909 50.7269 3.3428 51.2876 3.71023C51.8482 4.07765 52.2857 4.59848 52.6001 5.27273C52.9144 5.94697 53.0716 6.74242 53.0716 7.65909C53.0716 8.58333 52.9144 9.38447 52.6001 10.0625C52.2857 10.7367 51.8501 11.2595 51.2932 11.6307C50.7364 11.9981 50.0944 12.1818 49.3671 12.1818C48.8065 12.1818 48.3576 12.089 48.0205 11.9034C47.6834 11.714 47.4239 11.5 47.2421 11.2614C47.0603 11.0189 46.9201 10.8182 46.8216 10.6591H46.6626V12H45.3671ZM46.6853 7.63636C46.6853 8.29545 46.7819 8.87689 46.9751 9.38068C47.1682 9.88068 47.4504 10.2727 47.8216 10.5568C48.1929 10.8371 48.6474 10.9773 49.1853 10.9773C49.7459 10.9773 50.2137 10.8295 50.5887 10.5341C50.9675 10.2348 51.2516 9.83333 51.441 9.32955C51.6341 8.82197 51.7307 8.25758 51.7307 7.63636C51.7307 7.02273 51.636 6.4697 51.4466 5.97727C51.261 5.48106 50.9788 5.08902 50.6001 4.80114C50.2251 4.50947 49.7535 4.36364 49.1853 4.36364C48.6398 4.36364 48.1815 4.50189 47.8103 4.77841C47.4391 5.05114 47.1588 5.43371 46.9694 5.92614C46.78 6.41477 46.6853 6.98485 46.6853 7.63636ZM58.7819 12.1818C57.941 12.1818 57.2156 11.9962 56.6057 11.625C55.9997 11.25 55.5319 10.7273 55.2023 10.0568C54.8766 9.38258 54.7137 8.59848 54.7137 7.70455C54.7137 6.81061 54.8766 6.02273 55.2023 5.34091C55.5319 4.6553 55.9902 4.12121 56.5773 3.73864C57.1682 3.35227 57.8576 3.15909 58.6455 3.15909C59.1001 3.15909 59.5489 3.23485 59.9921 3.38636C60.4353 3.53788 60.8387 3.78409 61.2023 4.125C61.566 4.46212 61.8557 4.90909 62.0716 5.46591C62.2876 6.02273 62.3955 6.70833 62.3955 7.52273V8.09091H55.6682V6.93182H61.0319C61.0319 6.43939 60.9334 6 60.7364 5.61364C60.5432 5.22727 60.2667 4.92235 59.9069 4.69886C59.5508 4.47538 59.1304 4.36364 58.6455 4.36364C58.1114 4.36364 57.6493 4.49621 57.2591 4.76136C56.8728 5.02273 56.5754 5.36364 56.3671 5.78409C56.1588 6.20455 56.0546 6.6553 56.0546 7.13636V7.90909C56.0546 8.56818 56.1682 9.12689 56.3955 9.58523C56.6266 10.0398 56.9466 10.3864 57.3557 10.625C57.7648 10.8598 58.2402 10.9773 58.7819 10.9773C59.1341 10.9773 59.4523 10.928 59.7364 10.8295C60.0243 10.7273 60.2724 10.5758 60.4807 10.375C60.6891 10.1705 60.8501 9.91667 60.9637 9.61364L62.2591 9.97727C62.1228 10.4167 61.8936 10.803 61.5716 11.1364C61.2497 11.4659 60.8519 11.7235 60.3785 11.9091C59.905 12.0909 59.3728 12.1818 58.7819 12.1818ZM64.4353 12V3.27273H65.7307V4.59091H65.8216C65.9807 4.15909 66.2686 3.80871 66.6853 3.53977C67.1019 3.27083 67.5716 3.13636 68.0944 3.13636C68.1929 3.13636 68.316 3.13826 68.4637 3.14205C68.6114 3.14583 68.7232 3.15152 68.7989 3.15909V4.52273C68.7535 4.51136 68.6493 4.49432 68.4864 4.47159C68.3273 4.44508 68.1588 4.43182 67.9807 4.43182C67.5565 4.43182 67.1777 4.52083 66.8444 4.69886C66.5148 4.87311 66.2535 5.11553 66.0603 5.42614C65.8709 5.73295 65.7762 6.08333 65.7762 6.47727V12H64.4353ZM74.7307 3.27273V4.40909H70.208V3.27273H74.7307ZM71.5262 1.18182H72.8671V9.5C72.8671 9.87879 72.922 10.1629 73.0319 10.3523C73.1455 10.5379 73.2894 10.6629 73.4637 10.7273C73.6417 10.7879 73.8292 10.8182 74.0262 10.8182C74.1739 10.8182 74.2951 10.8106 74.3898 10.7955C74.4845 10.7765 74.5603 10.7614 74.6171 10.75L74.8898 11.9545C74.7989 11.9886 74.672 12.0227 74.5091 12.0568C74.3463 12.0947 74.1398 12.1136 73.8898 12.1136C73.511 12.1136 73.1398 12.0322 72.7762 11.8693C72.4163 11.7064 72.1171 11.4583 71.8785 11.125C71.6436 10.7917 71.5262 10.3712 71.5262 9.86364V1.18182ZM80.1995 12.1818C79.4116 12.1818 78.7203 11.9943 78.1256 11.6193C77.5347 11.2443 77.0726 10.7197 76.7393 10.0455C76.4097 9.37121 76.2449 8.58333 76.2449 7.68182C76.2449 6.77273 76.4097 5.97917 76.7393 5.30114C77.0726 4.62311 77.5347 4.09659 78.1256 3.72159C78.7203 3.34659 79.4116 3.15909 80.1995 3.15909C80.9874 3.15909 81.6768 3.34659 82.2677 3.72159C82.8624 4.09659 83.3245 4.62311 83.654 5.30114C83.9874 5.97917 84.154 6.77273 84.154 7.68182C84.154 8.58333 83.9874 9.37121 83.654 10.0455C83.3245 10.7197 82.8624 11.2443 82.2677 11.6193C81.6768 11.9943 80.9874 12.1818 80.1995 12.1818ZM80.1995 10.9773C80.798 10.9773 81.2904 10.8239 81.6768 10.517C82.0631 10.2102 82.3491 9.80682 82.5347 9.30682C82.7203 8.80682 82.8131 8.26515 82.8131 7.68182C82.8131 7.09848 82.7203 6.55492 82.5347 6.05114C82.3491 5.54735 82.0631 5.14015 81.6768 4.82955C81.2904 4.51894 80.798 4.36364 80.1995 4.36364C79.601 4.36364 79.1086 4.51894 78.7222 4.82955C78.3358 5.14015 78.0499 5.54735 77.8643 6.05114C77.6787 6.55492 77.5858 7.09848 77.5858 7.68182C77.5858 8.26515 77.6787 8.80682 77.8643 9.30682C78.0499 9.80682 78.3358 10.2102 78.7222 10.517C79.1086 10.8239 79.601 10.9773 80.1995 10.9773ZM87.1782 12.0909C86.8979 12.0909 86.6573 11.9905 86.4566 11.7898C86.2558 11.589 86.1555 11.3485 86.1555 11.0682C86.1555 10.7879 86.2558 10.5473 86.4566 10.3466C86.6573 10.1458 86.8979 10.0455 87.1782 10.0455C87.4585 10.0455 87.699 10.1458 87.8998 10.3466C88.1005 10.5473 88.2009 10.7879 88.2009 11.0682C88.2009 11.2538 88.1536 11.4242 88.0589 11.5795C87.968 11.7348 87.8448 11.8598 87.6895 11.9545C87.538 12.0455 87.3676 12.0909 87.1782 12.0909ZM94.1796 0.204545C94.6569 0.208333 95.1341 0.299242 95.6114 0.477272C96.0887 0.655303 96.5243 0.950757 96.9182 1.36364C97.3122 1.77273 97.6285 2.33144 97.8671 3.03977C98.1057 3.74811 98.2251 4.63636 98.2251 5.70455C98.2251 6.73864 98.1266 7.6572 97.9296 8.46023C97.7364 9.25947 97.4561 9.93371 97.0887 10.483C96.7251 11.0322 96.2819 11.4489 95.7591 11.733C95.2402 12.017 94.6531 12.1591 93.9978 12.1591C93.3463 12.1591 92.7648 12.0303 92.2535 11.7727C91.7459 11.5114 91.3292 11.1496 91.0035 10.6875C90.6815 10.2216 90.4751 9.68182 90.3841 9.06818H91.7705C91.8955 9.60227 92.1436 10.0436 92.5148 10.392C92.8898 10.7367 93.3841 10.9091 93.9978 10.9091C94.8955 10.9091 95.6038 10.517 96.1228 9.73295C96.6455 8.94886 96.9069 7.84091 96.9069 6.40909H96.816C96.6038 6.72727 96.3519 7.00189 96.0603 7.23295C95.7686 7.46402 95.4448 7.64205 95.0887 7.76705C94.7326 7.89205 94.3538 7.95455 93.9523 7.95455C93.2857 7.95455 92.6739 7.78977 92.1171 7.46023C91.5641 7.12689 91.1209 6.67045 90.7876 6.09091C90.458 5.50758 90.2932 4.84091 90.2932 4.09091C90.2932 3.37879 90.4523 2.72727 90.7705 2.13636C91.0925 1.54167 91.5432 1.06818 92.1228 0.715909C92.7061 0.363636 93.3917 0.193182 94.1796 0.204545ZM94.1796 1.45455C93.7023 1.45455 93.2724 1.57386 92.8898 1.8125C92.511 2.04735 92.2099 2.36553 91.9864 2.76705C91.7667 3.16477 91.6569 3.60606 91.6569 4.09091C91.6569 4.57576 91.7629 5.01705 91.9751 5.41477C92.191 5.80871 92.4845 6.12311 92.8557 6.35795C93.2307 6.58902 93.6569 6.70455 94.1341 6.70455C94.494 6.70455 94.8292 6.63447 95.1398 6.49432C95.4504 6.35038 95.7213 6.1553 95.9523 5.90909C96.1872 5.65909 96.3709 5.37689 96.5035 5.0625C96.636 4.74432 96.7023 4.41288 96.7023 4.06818C96.7023 3.61364 96.5925 3.1875 96.3728 2.78977C96.1569 2.39205 95.8576 2.07008 95.4751 1.82386C95.0963 1.57765 94.6644 1.45455 94.1796 1.45455ZM104.164 0.204545C104.641 0.208333 105.119 0.299242 105.596 0.477272C106.073 0.655303 106.509 0.950757 106.903 1.36364C107.297 1.77273 107.613 2.33144 107.851 3.03977C108.09 3.74811 108.209 4.63636 108.209 5.70455C108.209 6.73864 108.111 7.6572 107.914 8.46023C107.721 9.25947 107.44 9.93371 107.073 10.483C106.709 11.0322 106.266 11.4489 105.744 11.733C105.225 12.017 104.637 12.1591 103.982 12.1591C103.331 12.1591 102.749 12.0303 102.238 11.7727C101.73 11.5114 101.314 11.1496 100.988 10.6875C100.666 10.2216 100.459 9.68182 100.369 9.06818H101.755C101.88 9.60227 102.128 10.0436 102.499 10.392C102.874 10.7367 103.369 10.9091 103.982 10.9091C104.88 10.9091 105.588 10.517 106.107 9.73295C106.63 8.94886 106.891 7.84091 106.891 6.40909H106.8C106.588 6.72727 106.336 7.00189 106.045 7.23295C105.753 7.46402 105.429 7.64205 105.073 7.76705C104.717 7.89205 104.338 7.95455 103.937 7.95455C103.27 7.95455 102.658 7.78977 102.101 7.46023C101.548 7.12689 101.105 6.67045 100.772 6.09091C100.442 5.50758 100.278 4.84091 100.278 4.09091C100.278 3.37879 100.437 2.72727 100.755 2.13636C101.077 1.54167 101.528 1.06818 102.107 0.715909C102.69 0.363636 103.376 0.193182 104.164 0.204545ZM104.164 1.45455C103.687 1.45455 103.257 1.57386 102.874 1.8125C102.495 2.04735 102.194 2.36553 101.971 2.76705C101.751 3.16477 101.641 3.60606 101.641 4.09091C101.641 4.57576 101.747 5.01705 101.959 5.41477C102.175 5.80871 102.469 6.12311 102.84 6.35795C103.215 6.58902 103.641 6.70455 104.119 6.70455C104.478 6.70455 104.814 6.63447 105.124 6.49432C105.435 6.35038 105.706 6.1553 105.937 5.90909C106.172 5.65909 106.355 5.37689 106.488 5.0625C106.62 4.74432 106.687 4.41288 106.687 4.06818C106.687 3.61364 106.577 3.1875 106.357 2.78977C106.141 2.39205 105.842 2.07008 105.459 1.82386C105.081 1.57765 104.649 1.45455 104.164 1.45455ZM114.535 0.363636V12H113.126V1.84091H113.057L110.217 3.72727V2.29545L113.126 0.363636H114.535ZM124.609 15.0682C123.449 15.0682 122.425 14.9091 121.535 14.5909C120.645 14.2765 119.896 13.8125 119.29 13.1989C118.684 12.5852 118.226 11.8333 117.915 10.9432C117.605 10.053 117.449 9.03409 117.449 7.88636C117.449 6.77651 117.607 5.78409 117.921 4.90909C118.239 4.03409 118.699 3.29167 119.302 2.68182C119.908 2.06818 120.643 1.60038 121.506 1.27841C122.374 0.956439 123.355 0.795454 124.449 0.795454C125.514 0.795454 126.446 0.969696 127.245 1.31818C128.048 1.66288 128.718 2.13068 129.256 2.72159C129.798 3.30871 130.203 3.9697 130.472 4.70455C130.745 5.43939 130.881 6.19697 130.881 6.97727C130.881 7.52651 130.855 8.08333 130.802 8.64773C130.749 9.21212 130.637 9.73106 130.467 10.2045C130.296 10.6742 130.033 11.053 129.677 11.3409C129.324 11.6288 128.847 11.7727 128.245 11.7727C127.98 11.7727 127.688 11.7311 127.37 11.6477C127.052 11.5644 126.77 11.4261 126.523 11.233C126.277 11.0398 126.131 10.7803 126.086 10.4545H126.018C125.927 10.6742 125.787 10.8826 125.597 11.0795C125.412 11.2765 125.167 11.4337 124.864 11.5511C124.565 11.6686 124.199 11.7197 123.768 11.7045C123.275 11.6856 122.842 11.5758 122.467 11.375C122.092 11.1705 121.777 10.8939 121.523 10.5455C121.273 10.1932 121.084 9.78598 120.955 9.32386C120.83 8.85795 120.768 8.35606 120.768 7.81818C120.768 7.30682 120.843 6.83901 120.995 6.41477C121.146 5.99053 121.357 5.61932 121.626 5.30114C121.898 4.98295 122.217 4.72917 122.58 4.53977C122.948 4.34659 123.343 4.22727 123.768 4.18182C124.146 4.14394 124.491 4.16098 124.802 4.23295C125.112 4.30114 125.368 4.4053 125.569 4.54545C125.77 4.68182 125.896 4.83333 125.949 5H126.018V4.36364H127.222V9.5C127.222 9.81818 127.311 10.0985 127.489 10.3409C127.667 10.5833 127.927 10.7045 128.268 10.7045C128.654 10.7045 128.949 10.572 129.154 10.3068C129.362 10.0417 129.504 9.63258 129.58 9.07955C129.66 8.52652 129.699 7.81818 129.699 6.95455C129.699 6.44697 129.629 5.94697 129.489 5.45455C129.353 4.95833 129.145 4.49432 128.864 4.0625C128.588 3.63068 128.237 3.25 127.813 2.92045C127.389 2.59091 126.891 2.33333 126.319 2.14773C125.751 1.95833 125.105 1.86364 124.381 1.86364C123.491 1.86364 122.694 2.00189 121.989 2.27841C121.289 2.55114 120.692 2.95076 120.199 3.47727C119.711 4 119.338 4.63636 119.08 5.38636C118.826 6.13258 118.699 6.98106 118.699 7.93182C118.699 8.89773 118.826 9.75568 119.08 10.5057C119.338 11.2557 119.717 11.8883 120.217 12.4034C120.72 12.9186 121.343 13.3087 122.086 13.5739C122.828 13.8428 123.684 13.9773 124.654 13.9773C125.071 13.9773 125.482 13.9375 125.887 13.858C126.292 13.7784 126.65 13.6913 126.961 13.5966C127.271 13.5019 127.495 13.4318 127.631 13.3864L127.949 14.4318C127.715 14.5303 127.408 14.6288 127.029 14.7273C126.654 14.8258 126.253 14.9072 125.824 14.9716C125.4 15.036 124.995 15.0682 124.609 15.0682ZM123.949 10.5455C124.457 10.5455 124.868 10.4432 125.182 10.2386C125.497 10.0341 125.726 9.72538 125.87 9.3125C126.014 8.89962 126.086 8.37879 126.086 7.75C126.086 7.11364 126.006 6.61742 125.847 6.26136C125.688 5.9053 125.453 5.6553 125.143 5.51136C124.832 5.36742 124.449 5.29545 123.995 5.29545C123.563 5.29545 123.194 5.40909 122.887 5.63636C122.584 5.85985 122.351 6.15909 122.188 6.53409C122.029 6.9053 121.949 7.31061 121.949 7.75C121.949 8.23485 122.014 8.69129 122.143 9.11932C122.271 9.54356 122.482 9.88826 122.773 10.1534C123.065 10.4148 123.457 10.5455 123.949 10.5455ZM136.411 15.4545C135.763 15.4545 135.207 15.3712 134.741 15.2045C134.275 15.0417 133.887 14.8258 133.576 14.5568C133.269 14.2917 133.025 14.0076 132.843 13.7045L133.911 12.9545C134.032 13.1136 134.186 13.2955 134.371 13.5C134.557 13.7083 134.811 13.8883 135.133 14.0398C135.458 14.1951 135.885 14.2727 136.411 14.2727C137.116 14.2727 137.697 14.1023 138.155 13.7614C138.614 13.4205 138.843 12.8864 138.843 12.1591V10.3864H138.729C138.631 10.5455 138.491 10.7424 138.309 10.9773C138.131 11.2083 137.873 11.4148 137.536 11.5966C137.203 11.7746 136.752 11.8636 136.184 11.8636C135.479 11.8636 134.847 11.697 134.286 11.3636C133.729 11.0303 133.288 10.5455 132.962 9.90909C132.64 9.27273 132.479 8.5 132.479 7.59091C132.479 6.69697 132.637 5.91856 132.951 5.25568C133.265 4.58901 133.703 4.07386 134.263 3.71023C134.824 3.3428 135.472 3.15909 136.207 3.15909C136.775 3.15909 137.226 3.25379 137.559 3.44318C137.896 3.62879 138.154 3.84091 138.332 4.07955C138.513 4.31439 138.654 4.50758 138.752 4.65909H138.888V3.27273H140.184V12.25C140.184 13 140.013 13.6098 139.672 14.0795C139.335 14.553 138.881 14.8996 138.309 15.1193C137.741 15.3428 137.108 15.4545 136.411 15.4545ZM136.366 10.6591C136.904 10.6591 137.358 10.536 137.729 10.2898C138.101 10.0436 138.383 9.68939 138.576 9.22727C138.769 8.76515 138.866 8.21212 138.866 7.56818C138.866 6.93939 138.771 6.38447 138.582 5.90341C138.392 5.42235 138.112 5.04545 137.741 4.77273C137.369 4.5 136.911 4.36364 136.366 4.36364C135.797 4.36364 135.324 4.50758 134.945 4.79545C134.57 5.08333 134.288 5.4697 134.099 5.95455C133.913 6.43939 133.82 6.97727 133.82 7.56818C133.82 8.17424 133.915 8.71023 134.104 9.17614C134.297 9.63826 134.582 10.0019 134.957 10.267C135.335 10.5284 135.805 10.6591 136.366 10.6591ZM142.638 12V3.27273H143.934V4.63636H144.047C144.229 4.17045 144.523 3.80871 144.928 3.55114C145.333 3.28977 145.82 3.15909 146.388 3.15909C146.964 3.15909 147.443 3.28977 147.826 3.55114C148.212 3.80871 148.513 4.17045 148.729 4.63636H148.82C149.044 4.18561 149.379 3.82765 149.826 3.5625C150.273 3.29356 150.809 3.15909 151.434 3.15909C152.214 3.15909 152.852 3.40341 153.349 3.89205C153.845 4.37689 154.093 5.13258 154.093 6.15909V12H152.752V6.15909C152.752 5.51515 152.576 5.05492 152.224 4.77841C151.871 4.50189 151.457 4.36364 150.979 4.36364C150.366 4.36364 149.89 4.54924 149.553 4.92045C149.216 5.28788 149.047 5.75379 149.047 6.31818V12H147.684V6.02273C147.684 5.52652 147.523 5.12689 147.201 4.82386C146.879 4.51705 146.464 4.36364 145.957 4.36364C145.608 4.36364 145.282 4.45644 144.979 4.64205C144.68 4.82765 144.438 5.08523 144.252 5.41477C144.07 5.74053 143.979 6.11742 143.979 6.54545V12H142.638ZM159.113 12.2045C158.56 12.2045 158.058 12.1004 157.607 11.892C157.156 11.6799 156.798 11.375 156.533 10.9773C156.268 10.5758 156.136 10.0909 156.136 9.52273C156.136 9.02273 156.234 8.61742 156.431 8.30682C156.628 7.99242 156.891 7.74621 157.221 7.56818C157.55 7.39015 157.914 7.25758 158.312 7.17045C158.713 7.07955 159.117 7.00758 159.522 6.95455C160.052 6.88636 160.482 6.83523 160.812 6.80114C161.145 6.76326 161.387 6.70076 161.539 6.61364C161.694 6.52652 161.772 6.375 161.772 6.15909V6.11364C161.772 5.55303 161.619 5.11742 161.312 4.80682C161.009 4.49621 160.548 4.34091 159.931 4.34091C159.291 4.34091 158.789 4.48106 158.425 4.76136C158.062 5.04167 157.806 5.34091 157.658 5.65909L156.386 5.20455C156.613 4.67424 156.916 4.26136 157.295 3.96591C157.677 3.66667 158.094 3.45833 158.545 3.34091C158.999 3.2197 159.446 3.15909 159.886 3.15909C160.166 3.15909 160.488 3.19318 160.851 3.26136C161.219 3.32576 161.573 3.46023 161.914 3.66477C162.259 3.86932 162.545 4.17803 162.772 4.59091C162.999 5.00379 163.113 5.55682 163.113 6.25V12H161.772V10.8182H161.704C161.613 11.0076 161.461 11.2102 161.249 11.4261C161.037 11.642 160.755 11.8258 160.403 11.9773C160.05 12.1288 159.62 12.2045 159.113 12.2045ZM159.317 11C159.848 11 160.295 10.8958 160.658 10.6875C161.026 10.4792 161.302 10.2102 161.488 9.88068C161.677 9.55114 161.772 9.20455 161.772 8.84091V7.61364C161.715 7.68182 161.59 7.74432 161.397 7.80114C161.208 7.85417 160.988 7.90151 160.738 7.94318C160.492 7.98106 160.251 8.01515 160.016 8.04545C159.785 8.07197 159.598 8.0947 159.454 8.11364C159.105 8.15909 158.78 8.23295 158.476 8.33523C158.177 8.43371 157.935 8.58333 157.749 8.78409C157.567 8.98106 157.476 9.25 157.476 9.59091C157.476 10.0568 157.649 10.4091 157.994 10.6477C158.342 10.8826 158.783 11 159.317 11ZM165.56 12V3.27273H166.901V12H165.56ZM166.242 1.81818C165.981 1.81818 165.755 1.72917 165.566 1.55114C165.38 1.37311 165.288 1.15909 165.288 0.909091C165.288 0.659091 165.38 0.445076 165.566 0.267045C165.755 0.089015 165.981 0 166.242 0C166.503 0 166.727 0.089015 166.913 0.267045C167.102 0.445076 167.197 0.659091 167.197 0.909091C167.197 1.15909 167.102 1.37311 166.913 1.55114C166.727 1.72917 166.503 1.81818 166.242 1.81818ZM170.698 0.363636V12H169.357V0.363636H170.698ZM174.131 12.0909C173.851 12.0909 173.61 11.9905 173.41 11.7898C173.209 11.589 173.109 11.3485 173.109 11.0682C173.109 10.7879 173.209 10.5473 173.41 10.3466C173.61 10.1458 173.851 10.0455 174.131 10.0455C174.412 10.0455 174.652 10.1458 174.853 10.3466C175.054 10.5473 175.154 10.7879 175.154 11.0682C175.154 11.2538 175.107 11.4242 175.012 11.5795C174.921 11.7348 174.798 11.8598 174.643 11.9545C174.491 12.0455 174.321 12.0909 174.131 12.0909ZM181.106 12.1818C180.288 12.1818 179.583 11.9886 178.992 11.6023C178.401 11.2159 177.947 10.6837 177.628 10.0057C177.31 9.32765 177.151 8.55303 177.151 7.68182C177.151 6.79545 177.314 6.01326 177.64 5.33523C177.969 4.65341 178.428 4.12121 179.015 3.73864C179.606 3.35227 180.295 3.15909 181.083 3.15909C181.697 3.15909 182.25 3.27273 182.742 3.5C183.235 3.72727 183.638 4.04545 183.952 4.45455C184.267 4.86364 184.462 5.34091 184.538 5.88636H183.197C183.094 5.48864 182.867 5.13636 182.515 4.82955C182.166 4.51894 181.697 4.36364 181.106 4.36364C180.583 4.36364 180.125 4.5 179.731 4.77273C179.341 5.04167 179.036 5.42235 178.816 5.91477C178.6 6.40341 178.492 6.97727 178.492 7.63636C178.492 8.31061 178.598 8.89773 178.81 9.39773C179.026 9.89773 179.329 10.286 179.719 10.5625C180.113 10.839 180.575 10.9773 181.106 10.9773C181.454 10.9773 181.771 10.9167 182.055 10.7955C182.339 10.6742 182.579 10.5 182.776 10.2727C182.973 10.0455 183.113 9.77273 183.197 9.45455H184.538C184.462 9.9697 184.274 10.4337 183.975 10.8466C183.68 11.2557 183.288 11.5814 182.799 11.8239C182.314 12.0625 181.75 12.1818 181.106 12.1818ZM190.043 12.1818C189.255 12.1818 188.564 11.9943 187.969 11.6193C187.378 11.2443 186.916 10.7197 186.583 10.0455C186.253 9.37121 186.089 8.58333 186.089 7.68182C186.089 6.77273 186.253 5.97917 186.583 5.30114C186.916 4.62311 187.378 4.09659 187.969 3.72159C188.564 3.34659 189.255 3.15909 190.043 3.15909C190.831 3.15909 191.521 3.34659 192.111 3.72159C192.706 4.09659 193.168 4.62311 193.498 5.30114C193.831 5.97917 193.998 6.77273 193.998 7.68182C193.998 8.58333 193.831 9.37121 193.498 10.0455C193.168 10.7197 192.706 11.2443 192.111 11.6193C191.521 11.9943 190.831 12.1818 190.043 12.1818ZM190.043 10.9773C190.642 10.9773 191.134 10.8239 191.521 10.517C191.907 10.2102 192.193 9.80682 192.378 9.30682C192.564 8.80682 192.657 8.26515 192.657 7.68182C192.657 7.09848 192.564 6.55492 192.378 6.05114C192.193 5.54735 191.907 5.14015 191.521 4.82955C191.134 4.51894 190.642 4.36364 190.043 4.36364C189.445 4.36364 188.952 4.51894 188.566 4.82955C188.18 5.14015 187.894 5.54735 187.708 6.05114C187.522 6.55492 187.43 7.09848 187.43 7.68182C187.43 8.26515 187.522 8.80682 187.708 9.30682C187.894 9.80682 188.18 10.2102 188.566 10.517C188.952 10.8239 189.445 10.9773 190.043 10.9773ZM196.045 12V3.27273H197.34V4.63636H197.454C197.636 4.17045 197.929 3.80871 198.334 3.55114C198.74 3.28977 199.226 3.15909 199.795 3.15909C200.37 3.15909 200.85 3.28977 201.232 3.55114C201.619 3.80871 201.92 4.17045 202.136 4.63636H202.226C202.45 4.18561 202.785 3.82765 203.232 3.5625C203.679 3.29356 204.215 3.15909 204.84 3.15909C205.62 3.15909 206.259 3.40341 206.755 3.89205C207.251 4.37689 207.499 5.13258 207.499 6.15909V12H206.158V6.15909C206.158 5.51515 205.982 5.05492 205.63 4.77841C205.278 4.50189 204.863 4.36364 204.386 4.36364C203.772 4.36364 203.297 4.54924 202.959 4.92045C202.622 5.28788 202.454 5.75379 202.454 6.31818V12H201.09V6.02273C201.09 5.52652 200.929 5.12689 200.607 4.82386C200.285 4.51705 199.87 4.36364 199.363 4.36364C199.014 4.36364 198.689 4.45644 198.386 4.64205C198.086 4.82765 197.844 5.08523 197.658 5.41477C197.476 5.74053 197.386 6.11742 197.386 6.54545V12H196.045Z" fill="#1F1F1F"/>
</svg>
