<svg width="285" height="20" viewBox="0 0 285 20" fill="none" xmlns="http://www.w3.org/2000/svg">
<path d="M5.68 15.14C4.97333 15.14 4.32 14.9933 3.72 14.7C3.12 14.4067 2.6 14.0133 2.16 13.52C1.73333 13.0133 1.4 12.44 1.16 11.8C0.92 11.16 0.8 10.5 0.8 9.82C0.8 9.08667 0.913333 8.4 1.14 7.76C1.38 7.10667 1.71333 6.52667 2.14 6.02C2.58 5.51333 3.09333 5.12 3.68 4.84C4.26667 4.54667 4.92 4.4 5.64 4.4C6.53333 4.4 7.30667 4.62667 7.96 5.08C8.62667 5.53333 9.18667 6.09333 9.64 6.76V4.58H10.86V15.04C10.86 16 10.6267 16.8067 10.16 17.46C9.70667 18.1267 9.08667 18.6267 8.3 18.96C7.52667 19.2933 6.68 19.46 5.76 19.46C4.57333 19.46 3.61333 19.2467 2.88 18.82C2.14667 18.3933 1.54667 17.82 1.08 17.1L1.92 16.44C2.33333 17.0933 2.88 17.58 3.56 17.9C4.25333 18.22 4.98667 18.38 5.76 18.38C6.44 18.38 7.06 18.2533 7.62 18C8.19333 17.76 8.64667 17.3933 8.98 16.9C9.32667 16.4067 9.5 15.7867 9.5 15.04V12.98C9.1 13.6333 8.55333 14.16 7.86 14.56C7.16667 14.9467 6.44 15.14 5.68 15.14ZM6.06 14C6.47333 14 6.86667 13.9267 7.24 13.78C7.62667 13.6333 7.98 13.44 8.3 13.2C8.62 12.9467 8.88667 12.6667 9.1 12.36C9.31333 12.0533 9.44667 11.74 9.5 11.42V8.2C9.3 7.69333 9.01333 7.24667 8.64 6.86C8.26667 6.46 7.84 6.15333 7.36 5.94C6.89333 5.71333 6.40667 5.6 5.9 5.6C5.31333 5.6 4.78667 5.72667 4.32 5.98C3.86667 6.22 3.48 6.54667 3.16 6.96C2.85333 7.36 2.61333 7.81333 2.44 8.32C2.26667 8.82667 2.18 9.33333 2.18 9.84C2.18 10.4 2.28 10.9333 2.48 11.44C2.68 11.9333 2.95333 12.38 3.3 12.78C3.66 13.1667 4.07333 13.4667 4.54 13.68C5.02 13.8933 5.52667 14 6.06 14ZM13.7633 10.7V4.58H15.1233V10.46C15.1233 11.6467 15.3233 12.5333 15.7233 13.12C16.1366 13.7067 16.7433 14 17.5433 14C18.0766 14 18.5899 13.8867 19.0833 13.66C19.5899 13.42 20.0366 13.0867 20.4233 12.66C20.8099 12.22 21.1033 11.7133 21.3033 11.14V4.58H22.6633V13.36C22.6633 13.5467 22.7033 13.6867 22.7833 13.78C22.8633 13.86 22.9833 13.9067 23.1433 13.92V15C22.9833 15.0133 22.8566 15.02 22.7633 15.02C22.6699 15.0333 22.5833 15.04 22.5033 15.04C22.2366 15.0133 22.0033 14.9067 21.8033 14.72C21.6166 14.5333 21.5166 14.3067 21.5033 14.04L21.4633 12.64C21.0099 13.44 20.3899 14.0667 19.6033 14.52C18.8299 14.9733 17.9899 15.2 17.0833 15.2C15.9899 15.2 15.1633 14.82 14.6033 14.06C14.0433 13.3 13.7633 12.18 13.7633 10.7ZM29.1583 15.2C28.3049 15.2 27.5116 15.06 26.7783 14.78C26.0449 14.5 25.4116 14.0733 24.8783 13.5L25.4383 12.54C26.0249 13.0867 26.6116 13.4867 27.1983 13.74C27.7983 13.98 28.4316 14.1 29.0983 14.1C29.9116 14.1 30.5716 13.94 31.0783 13.62C31.5849 13.2867 31.8383 12.8133 31.8383 12.2C31.8383 11.7867 31.7116 11.4733 31.4583 11.26C31.2183 11.0333 30.8649 10.8533 30.3983 10.72C29.9449 10.5733 29.3983 10.42 28.7583 10.26C28.0383 10.06 27.4316 9.85333 26.9383 9.64C26.4583 9.41333 26.0916 9.13333 25.8383 8.8C25.5983 8.45333 25.4783 8.00667 25.4783 7.46C25.4783 6.78 25.6449 6.22 25.9783 5.78C26.3249 5.32667 26.7916 4.98667 27.3783 4.76C27.9783 4.52 28.6449 4.4 29.3783 4.4C30.1783 4.4 30.8849 4.52667 31.4983 4.78C32.1116 5.03333 32.6116 5.38667 32.9983 5.84L32.3383 6.76C31.9649 6.33333 31.5183 6.02 30.9983 5.82C30.4916 5.60667 29.9249 5.5 29.2983 5.5C28.8716 5.5 28.4649 5.56 28.0783 5.68C27.6916 5.78667 27.3716 5.97333 27.1183 6.24C26.8783 6.49333 26.7583 6.84667 26.7583 7.3C26.7583 7.67333 26.8516 7.96667 27.0383 8.18C27.2249 8.38 27.5049 8.55333 27.8783 8.7C28.2516 8.83333 28.7116 8.98 29.2583 9.14C30.0449 9.35333 30.7316 9.57333 31.3183 9.8C31.9049 10.0133 32.3583 10.2933 32.6783 10.64C32.9983 10.9867 33.1583 11.4733 33.1583 12.1C33.1583 13.0733 32.7916 13.8333 32.0583 14.38C31.3249 14.9267 30.3583 15.2 29.1583 15.2ZM40.4063 14.5C40.2996 14.54 40.1329 14.6133 39.9063 14.72C39.6796 14.8267 39.4063 14.92 39.0863 15C38.7663 15.08 38.4196 15.12 38.0463 15.12C37.6596 15.12 37.2929 15.0467 36.9463 14.9C36.6129 14.7533 36.3463 14.5333 36.1463 14.24C35.9463 13.9333 35.8463 13.56 35.8463 13.12V5.66H34.4063V4.58H35.8463V1.06H37.2063V4.58H39.6063V5.66H37.2063V12.74C37.2329 13.1133 37.3663 13.3933 37.6063 13.58C37.8596 13.7667 38.1463 13.86 38.4663 13.86C38.8396 13.86 39.1796 13.8 39.4863 13.68C39.7929 13.5467 39.9796 13.4533 40.0463 13.4L40.4063 14.5ZM41.2655 12C41.2655 11.3467 41.4521 10.7867 41.8255 10.32C42.1988 9.84 42.7121 9.47333 43.3655 9.22C44.0321 8.95333 44.7988 8.82 45.6655 8.82C46.1721 8.82 46.6988 8.86 47.2455 8.94C47.7921 9.02 48.2788 9.14 48.7055 9.3V8.42C48.7055 7.54 48.4455 6.84 47.9255 6.32C47.4055 5.8 46.6855 5.54 45.7655 5.54C45.2055 5.54 44.6521 5.64667 44.1055 5.86C43.5721 6.06 43.0121 6.36 42.4255 6.76L41.9055 5.8C42.5855 5.33333 43.2521 4.98667 43.9055 4.76C44.5588 4.52 45.2255 4.4 45.9055 4.4C47.1855 4.4 48.1988 4.76667 48.9455 5.5C49.6921 6.23333 50.0655 7.24667 50.0655 8.54V13.36C50.0655 13.5467 50.1055 13.6867 50.1855 13.78C50.2655 13.86 50.3921 13.9067 50.5655 13.92V15C50.4188 15.0133 50.2921 15.0267 50.1855 15.04C50.0788 15.0533 49.9988 15.0533 49.9455 15.04C49.6121 15.0267 49.3588 14.92 49.1855 14.72C49.0121 14.52 48.9188 14.3067 48.9055 14.08L48.8855 13.32C48.4188 13.92 47.8121 14.3867 47.0655 14.72C46.3188 15.04 45.5588 15.2 44.7855 15.2C44.1188 15.2 43.5121 15.06 42.9655 14.78C42.4321 14.4867 42.0121 14.1 41.7055 13.62C41.4121 13.1267 41.2655 12.5867 41.2655 12ZM48.2455 12.8C48.3921 12.6133 48.5055 12.4333 48.5855 12.26C48.6655 12.0867 48.7055 11.9333 48.7055 11.8V10.28C48.2521 10.1067 47.7788 9.97333 47.2855 9.88C46.8055 9.78667 46.3188 9.74 45.8255 9.74C44.8521 9.74 44.0655 9.93333 43.4655 10.32C42.8655 10.7067 42.5655 11.2333 42.5655 11.9C42.5655 12.2867 42.6655 12.6533 42.8655 13C43.0655 13.3333 43.3588 13.6133 43.7455 13.84C44.1321 14.0533 44.5855 14.16 45.1055 14.16C45.7588 14.16 46.3655 14.0333 46.9255 13.78C47.4988 13.5267 47.9388 13.2 48.2455 12.8ZM55.7914 15L51.5714 4.58H52.9914L56.5514 13.64L60.1314 4.58H61.4714L57.2514 15H55.7914ZM67.4439 15.2C66.6972 15.2 66.0039 15.06 65.3639 14.78C64.7372 14.4867 64.1906 14.0933 63.7239 13.6C63.2706 13.0933 62.9172 12.52 62.6639 11.88C62.4106 11.2267 62.2839 10.54 62.2839 9.82C62.2839 9.07333 62.4106 8.38 62.6639 7.74C62.9172 7.08667 63.2772 6.51333 63.7439 6.02C64.2106 5.51333 64.7572 5.12 65.3839 4.84C66.0239 4.54667 66.7172 4.4 67.4639 4.4C68.2106 4.4 68.8972 4.54667 69.5239 4.84C70.1506 5.12 70.6972 5.51333 71.1639 6.02C71.6306 6.51333 71.9906 7.08667 72.2439 7.74C72.4972 8.38 72.6239 9.07333 72.6239 9.82C72.6239 10.54 72.4972 11.2267 72.2439 11.88C71.9906 12.52 71.6306 13.0933 71.1639 13.6C70.7106 14.0933 70.1639 14.4867 69.5239 14.78C68.8972 15.06 68.2039 15.2 67.4439 15.2ZM63.6639 9.84C63.6639 10.6133 63.8306 11.32 64.1639 11.96C64.5106 12.5867 64.9706 13.0867 65.5439 13.46C66.1172 13.82 66.7506 14 67.4439 14C68.1372 14 68.7706 13.8133 69.3439 13.44C69.9172 13.0667 70.3772 12.56 70.7239 11.92C71.0706 11.2667 71.2439 10.56 71.2439 9.8C71.2439 9.02667 71.0706 8.32 70.7239 7.68C70.3772 7.04 69.9172 6.53333 69.3439 6.16C68.7706 5.78667 68.1372 5.6 67.4439 5.6C66.7506 5.6 66.1172 5.79333 65.5439 6.18C64.9839 6.56667 64.5306 7.08 64.1839 7.72C63.8372 8.34667 63.6639 9.05333 63.6639 9.84ZM74.0584 12C74.0584 11.3467 74.2451 10.7867 74.6184 10.32C74.9918 9.84 75.5051 9.47333 76.1584 9.22C76.8251 8.95333 77.5918 8.82 78.4584 8.82C78.9651 8.82 79.4918 8.86 80.0384 8.94C80.5851 9.02 81.0718 9.14 81.4984 9.3V8.42C81.4984 7.54 81.2384 6.84 80.7184 6.32C80.1984 5.8 79.4784 5.54 78.5584 5.54C77.9984 5.54 77.4451 5.64667 76.8984 5.86C76.3651 6.06 75.8051 6.36 75.2184 6.76L74.6984 5.8C75.3784 5.33333 76.0451 4.98667 76.6984 4.76C77.3518 4.52 78.0184 4.4 78.6984 4.4C79.9784 4.4 80.9918 4.76667 81.7384 5.5C82.4851 6.23333 82.8584 7.24667 82.8584 8.54V13.36C82.8584 13.5467 82.8984 13.6867 82.9784 13.78C83.0584 13.86 83.1851 13.9067 83.3584 13.92V15C83.2118 15.0133 83.0851 15.0267 82.9784 15.04C82.8718 15.0533 82.7918 15.0533 82.7384 15.04C82.4051 15.0267 82.1518 14.92 81.9784 14.72C81.8051 14.52 81.7118 14.3067 81.6984 14.08L81.6784 13.32C81.2118 13.92 80.6051 14.3867 79.8584 14.72C79.1118 15.04 78.3518 15.2 77.5784 15.2C76.9118 15.2 76.3051 15.06 75.7584 14.78C75.2251 14.4867 74.8051 14.1 74.4984 13.62C74.2051 13.1267 74.0584 12.5867 74.0584 12ZM81.0384 12.8C81.1851 12.6133 81.2984 12.4333 81.3784 12.26C81.4584 12.0867 81.4984 11.9333 81.4984 11.8V10.28C81.0451 10.1067 80.5718 9.97333 80.0784 9.88C79.5984 9.78667 79.1118 9.74 78.6184 9.74C77.6451 9.74 76.8584 9.93333 76.2584 10.32C75.6584 10.7067 75.3584 11.2333 75.3584 11.9C75.3584 12.2867 75.4584 12.6533 75.6584 13C75.8584 13.3333 76.1518 13.6133 76.5384 13.84C76.9251 14.0533 77.3784 14.16 77.8984 14.16C78.5518 14.16 79.1584 14.0333 79.7184 13.78C80.2918 13.5267 80.7318 13.2 81.0384 12.8ZM85.8569 0.4H87.2169V12.64C87.2169 13.16 87.3102 13.5 87.4969 13.66C87.6835 13.82 87.9102 13.9 88.1769 13.9C88.4169 13.9 88.6569 13.8733 88.8969 13.82C89.1369 13.7667 89.3435 13.7133 89.5169 13.66L89.7569 14.76C89.5035 14.8667 89.1902 14.9533 88.8169 15.02C88.4569 15.0867 88.1435 15.12 87.8769 15.12C87.2635 15.12 86.7702 14.94 86.3969 14.58C86.0369 14.22 85.8569 13.7267 85.8569 13.1V0.4ZM96.3461 15.2C95.5328 15.2 94.7794 14.9933 94.0861 14.58C93.3928 14.1533 92.8528 13.62 92.4661 12.98V15H91.2461V0.4H92.6061V6.76C93.0728 6.05333 93.6328 5.48667 94.2861 5.06C94.9394 4.62 95.6994 4.4 96.5661 4.4C97.2994 4.4 97.9528 4.55333 98.5261 4.86C99.1128 5.16667 99.6128 5.58 100.026 6.1C100.439 6.60667 100.753 7.18667 100.966 7.84C101.179 8.48 101.286 9.14 101.286 9.82C101.286 10.5533 101.159 11.24 100.906 11.88C100.666 12.52 100.319 13.0933 99.8661 13.6C99.4128 14.0933 98.8861 14.4867 98.2861 14.78C97.6994 15.06 97.0528 15.2 96.3461 15.2ZM96.0261 14C96.5861 14 97.1061 13.8867 97.5861 13.66C98.0661 13.4333 98.4794 13.12 98.8261 12.72C99.1728 12.32 99.4394 11.8733 99.6261 11.38C99.8128 10.8733 99.9061 10.3533 99.9061 9.82C99.9061 9.08667 99.7461 8.4 99.4261 7.76C99.1194 7.10667 98.6861 6.58667 98.1261 6.2C97.5794 5.8 96.9328 5.6 96.1861 5.6C95.6528 5.6 95.1528 5.72 94.6861 5.96C94.2328 6.2 93.8261 6.52 93.4661 6.92C93.1194 7.30667 92.8328 7.73333 92.6061 8.2V11.44C92.6594 11.8 92.7994 12.14 93.0261 12.46C93.2528 12.7667 93.5328 13.0333 93.8661 13.26C94.2128 13.4867 94.5728 13.6667 94.9461 13.8C95.3194 13.9333 95.6794 14 96.0261 14ZM108.09 15.2C107.343 15.2 106.65 15.06 106.01 14.78C105.37 14.4867 104.817 14.0933 104.35 13.6C103.883 13.0933 103.517 12.5133 103.25 11.86C102.997 11.2067 102.87 10.5067 102.87 9.76C102.87 8.78667 103.09 7.89333 103.53 7.08C103.983 6.26667 104.603 5.62 105.39 5.14C106.177 4.64667 107.07 4.4 108.07 4.4C109.097 4.4 109.99 4.64667 110.75 5.14C111.523 5.63333 112.13 6.28667 112.57 7.1C113.01 7.9 113.23 8.78 113.23 9.74C113.23 9.84667 113.23 9.95333 113.23 10.06C113.23 10.1533 113.223 10.2267 113.21 10.28H104.29C104.357 11.0267 104.563 11.6933 104.91 12.28C105.27 12.8533 105.73 13.3133 106.29 13.66C106.863 13.9933 107.483 14.16 108.15 14.16C108.83 14.16 109.47 13.9867 110.07 13.64C110.683 13.2933 111.11 12.84 111.35 12.28L112.53 12.6C112.317 13.0933 111.99 13.54 111.55 13.94C111.11 14.34 110.59 14.6533 109.99 14.88C109.403 15.0933 108.77 15.2 108.09 15.2ZM104.25 9.3H111.95C111.897 8.54 111.69 7.87333 111.33 7.3C110.983 6.72667 110.523 6.28 109.95 5.96C109.39 5.62667 108.77 5.46 108.09 5.46C107.41 5.46 106.79 5.62667 106.23 5.96C105.67 6.28 105.21 6.73333 104.85 7.32C104.503 7.89333 104.303 8.55333 104.25 9.3ZM120.528 5.78C119.621 5.80667 118.821 6.06 118.128 6.54C117.448 7.02 116.968 7.68 116.688 8.52V15H115.328V4.58H116.608V7.08C116.968 6.34667 117.441 5.75333 118.028 5.3C118.628 4.84667 119.261 4.59333 119.928 4.54C120.061 4.52667 120.175 4.52 120.268 4.52C120.375 4.52 120.461 4.52667 120.528 4.54V5.78ZM127.34 14.5C127.233 14.54 127.067 14.6133 126.84 14.72C126.613 14.8267 126.34 14.92 126.02 15C125.7 15.08 125.353 15.12 124.98 15.12C124.593 15.12 124.227 15.0467 123.88 14.9C123.547 14.7533 123.28 14.5333 123.08 14.24C122.88 13.9333 122.78 13.56 122.78 13.12V5.66H121.34V4.58H122.78V1.06H124.14V4.58H126.54V5.66H124.14V12.74C124.167 13.1133 124.3 13.3933 124.54 13.58C124.793 13.7667 125.08 13.86 125.4 13.86C125.773 13.86 126.113 13.8 126.42 13.68C126.727 13.5467 126.913 13.4533 126.98 13.4L127.34 14.5ZM133.303 15.2C132.557 15.2 131.863 15.06 131.223 14.78C130.597 14.4867 130.05 14.0933 129.583 13.6C129.13 13.0933 128.777 12.52 128.523 11.88C128.27 11.2267 128.143 10.54 128.143 9.82C128.143 9.07333 128.27 8.38 128.523 7.74C128.777 7.08667 129.137 6.51333 129.603 6.02C130.07 5.51333 130.617 5.12 131.243 4.84C131.883 4.54667 132.577 4.4 133.323 4.4C134.07 4.4 134.757 4.54667 135.383 4.84C136.01 5.12 136.557 5.51333 137.023 6.02C137.49 6.51333 137.85 7.08667 138.103 7.74C138.357 8.38 138.483 9.07333 138.483 9.82C138.483 10.54 138.357 11.2267 138.103 11.88C137.85 12.52 137.49 13.0933 137.023 13.6C136.57 14.0933 136.023 14.4867 135.383 14.78C134.757 15.06 134.063 15.2 133.303 15.2ZM129.523 9.84C129.523 10.6133 129.69 11.32 130.023 11.96C130.37 12.5867 130.83 13.0867 131.403 13.46C131.977 13.82 132.61 14 133.303 14C133.997 14 134.63 13.8133 135.203 13.44C135.777 13.0667 136.237 12.56 136.583 11.92C136.93 11.2667 137.103 10.56 137.103 9.8C137.103 9.02667 136.93 8.32 136.583 7.68C136.237 7.04 135.777 6.53333 135.203 6.16C134.63 5.78667 133.997 5.6 133.303 5.6C132.61 5.6 131.977 5.79333 131.403 6.18C130.843 6.56667 130.39 7.08 130.043 7.72C129.697 8.34667 129.523 9.05333 129.523 9.84ZM146.378 17.54V13.98H139.718V12.78L146.818 3.58H147.738V12.74H149.498V13.98H147.738V17.54H146.378ZM141.158 12.74H146.518V5.72L141.158 12.74ZM151.056 15C151.056 14.5467 151.096 14.0933 151.176 13.64C151.256 13.1733 151.409 12.7133 151.636 12.26C151.862 11.8067 152.196 11.3733 152.636 10.96C153.076 10.5333 153.656 10.1333 154.376 9.76C154.762 9.56 155.162 9.36667 155.576 9.18C155.989 8.98 156.376 8.76667 156.736 8.54C157.109 8.3 157.402 8.03333 157.616 7.74C157.842 7.43333 157.956 7.07333 157.956 6.66C157.956 6.32667 157.856 6 157.656 5.68C157.469 5.36 157.176 5.1 156.776 4.9C156.389 4.7 155.902 4.6 155.316 4.6C154.889 4.6 154.502 4.66 154.156 4.78C153.809 4.9 153.502 5.05333 153.236 5.24C152.969 5.41333 152.742 5.59333 152.556 5.78C152.369 5.95333 152.216 6.1 152.096 6.22L151.236 5.28C151.302 5.2 151.449 5.06 151.676 4.86C151.916 4.64667 152.216 4.42667 152.576 4.2C152.949 3.97333 153.382 3.78 153.876 3.62C154.382 3.46 154.936 3.38 155.536 3.38C156.349 3.38 157.042 3.52667 157.616 3.82C158.202 4.1 158.649 4.48 158.956 4.96C159.262 5.44 159.416 5.96 159.416 6.52C159.416 7.06667 159.296 7.54 159.056 7.94C158.829 8.32667 158.529 8.66667 158.156 8.96C157.796 9.24 157.416 9.48667 157.016 9.7C156.629 9.9 156.276 10.0733 155.956 10.22C155.329 10.5133 154.802 10.8067 154.376 11.1C153.949 11.3933 153.609 11.6933 153.356 12C153.102 12.2933 152.902 12.5867 152.756 12.88C152.622 13.16 152.529 13.4533 152.476 13.76H159.636V15H151.056ZM171.745 9.14C171.745 10.3133 171.525 11.36 171.085 12.28C170.659 13.1867 170.065 13.9 169.305 14.42C168.545 14.94 167.685 15.2 166.725 15.2C165.765 15.2 164.905 14.94 164.145 14.42C163.399 13.9 162.805 13.1867 162.365 12.28C161.925 11.36 161.705 10.3133 161.705 9.14C161.705 7.96667 161.925 6.92667 162.365 6.02C162.805 5.1 163.399 4.38 164.145 3.86C164.905 3.32667 165.765 3.06 166.725 3.06C167.685 3.06 168.545 3.32667 169.305 3.86C170.065 4.38 170.659 5.1 171.085 6.02C171.525 6.92667 171.745 7.96667 171.745 9.14ZM170.365 9.14C170.365 8.19333 170.212 7.36 169.905 6.64C169.599 5.92 169.172 5.36 168.625 4.96C168.079 4.54667 167.445 4.34 166.725 4.34C166.005 4.34 165.372 4.54667 164.825 4.96C164.279 5.36 163.845 5.92 163.525 6.64C163.219 7.36 163.065 8.19333 163.065 9.14C163.065 10.0867 163.219 10.92 163.525 11.64C163.845 12.36 164.279 12.92 164.825 13.32C165.372 13.72 166.005 13.92 166.725 13.92C167.445 13.92 168.079 13.72 168.625 13.32C169.172 12.9067 169.599 12.3467 169.905 11.64C170.212 10.92 170.365 10.0867 170.365 9.14ZM181.192 2.94C182.178 2.94 183.105 3.12667 183.972 3.5C184.852 3.86 185.625 4.38 186.292 5.06C186.972 5.72667 187.505 6.52667 187.892 7.46C188.278 8.39333 188.472 9.42667 188.472 10.56C188.472 10.7867 188.452 11.0933 188.412 11.48C188.385 11.8667 188.318 12.28 188.212 12.72C188.105 13.16 187.945 13.58 187.732 13.98C187.532 14.3667 187.252 14.6867 186.892 14.94C186.532 15.1933 186.085 15.32 185.552 15.32C185.112 15.32 184.772 15.2333 184.532 15.06C184.305 14.8867 184.145 14.66 184.052 14.38C183.972 14.1 183.912 13.8 183.872 13.48C183.512 13.8667 183.032 14.2 182.432 14.48C181.845 14.76 181.198 14.9 180.492 14.9C179.545 14.9 178.805 14.6467 178.272 14.14C177.752 13.6333 177.492 12.9933 177.492 12.22C177.492 11.54 177.678 11.0067 178.052 10.62C178.425 10.2333 178.892 9.96 179.452 9.8C180.025 9.62667 180.605 9.54 181.192 9.54C181.778 9.54 182.292 9.6 182.732 9.72C183.185 9.82667 183.518 9.92 183.732 10C183.732 9.36 183.658 8.8 183.512 8.32C183.378 7.84 183.132 7.46667 182.772 7.2C182.412 6.92 181.905 6.78 181.252 6.78C180.732 6.78 180.232 6.86667 179.752 7.04C179.272 7.2 178.838 7.42667 178.452 7.72L178.092 6.94C178.572 6.62 179.085 6.36667 179.632 6.18C180.178 5.99333 180.758 5.9 181.372 5.9C182.118 5.9 182.705 6.02 183.132 6.26C183.572 6.5 183.898 6.82667 184.112 7.24C184.325 7.64 184.465 8.08 184.532 8.56C184.598 9.04 184.632 9.52 184.632 10V12.58C184.632 12.9667 184.652 13.3133 184.692 13.62C184.745 13.9267 184.845 14.1667 184.992 14.34C185.138 14.5 185.365 14.58 185.672 14.58C186.085 14.58 186.425 14.44 186.692 14.16C186.972 13.88 187.185 13.5267 187.332 13.1C187.492 12.6733 187.598 12.2267 187.652 11.76C187.718 11.2933 187.752 10.88 187.752 10.52C187.752 9.54667 187.585 8.64667 187.252 7.82C186.932 6.98 186.472 6.24667 185.872 5.62C185.272 4.99333 184.572 4.50667 183.772 4.16C182.972 3.8 182.105 3.62 181.172 3.62C180.252 3.62 179.392 3.78667 178.592 4.12C177.792 4.45333 177.085 4.92667 176.472 5.54C175.858 6.14 175.378 6.86 175.032 7.7C174.685 8.52667 174.512 9.42667 174.512 10.4C174.512 11.3467 174.672 12.2333 174.992 13.06C175.325 13.8867 175.785 14.6133 176.372 15.24C176.972 15.8667 177.672 16.3533 178.472 16.7C179.272 17.06 180.138 17.24 181.072 17.24C181.632 17.24 182.158 17.1667 182.652 17.02C183.145 16.8867 183.638 16.7067 184.132 16.48L184.392 17.12C183.858 17.3867 183.305 17.5867 182.732 17.72C182.172 17.8533 181.612 17.92 181.052 17.92C180.052 17.92 179.112 17.7333 178.232 17.36C177.365 16.9867 176.598 16.46 175.932 15.78C175.265 15.1133 174.738 14.32 174.352 13.4C173.978 12.48 173.792 11.48 173.792 10.4C173.792 9.26667 173.992 8.24667 174.392 7.34C174.805 6.42 175.358 5.63333 176.052 4.98C176.745 4.32667 177.532 3.82667 178.412 3.48C179.305 3.12 180.232 2.94 181.192 2.94ZM182.412 13.6C182.785 13.4267 183.065 13.2333 183.252 13.02C183.438 12.7933 183.558 12.5533 183.612 12.3C183.678 12.0467 183.712 11.8 183.712 11.56V10.76C183.538 10.7467 183.225 10.6733 182.772 10.54C182.332 10.3933 181.792 10.32 181.152 10.32C180.685 10.32 180.238 10.3733 179.812 10.48C179.398 10.5867 179.058 10.78 178.792 11.06C178.538 11.3267 178.412 11.7 178.412 12.18C178.412 12.5533 178.505 12.88 178.692 13.16C178.878 13.44 179.132 13.66 179.452 13.82C179.772 13.9667 180.138 14.04 180.552 14.04C180.872 14.04 181.198 14 181.532 13.92C181.865 13.8267 182.158 13.72 182.412 13.6ZM195.27 15.14C194.563 15.14 193.91 14.9933 193.31 14.7C192.71 14.4067 192.19 14.0133 191.75 13.52C191.323 13.0133 190.99 12.44 190.75 11.8C190.51 11.16 190.39 10.5 190.39 9.82C190.39 9.08667 190.503 8.4 190.73 7.76C190.97 7.10667 191.303 6.52667 191.73 6.02C192.17 5.51333 192.683 5.12 193.27 4.84C193.857 4.54667 194.51 4.4 195.23 4.4C196.123 4.4 196.897 4.62667 197.55 5.08C198.217 5.53333 198.777 6.09333 199.23 6.76V4.58H200.45V15.04C200.45 16 200.217 16.8067 199.75 17.46C199.297 18.1267 198.677 18.6267 197.89 18.96C197.117 19.2933 196.27 19.46 195.35 19.46C194.163 19.46 193.203 19.2467 192.47 18.82C191.737 18.3933 191.137 17.82 190.67 17.1L191.51 16.44C191.923 17.0933 192.47 17.58 193.15 17.9C193.843 18.22 194.577 18.38 195.35 18.38C196.03 18.38 196.65 18.2533 197.21 18C197.783 17.76 198.237 17.3933 198.57 16.9C198.917 16.4067 199.09 15.7867 199.09 15.04V12.98C198.69 13.6333 198.143 14.16 197.45 14.56C196.757 14.9467 196.03 15.14 195.27 15.14ZM195.65 14C196.063 14 196.457 13.9267 196.83 13.78C197.217 13.6333 197.57 13.44 197.89 13.2C198.21 12.9467 198.477 12.6667 198.69 12.36C198.903 12.0533 199.037 11.74 199.09 11.42V8.2C198.89 7.69333 198.603 7.24667 198.23 6.86C197.857 6.46 197.43 6.15333 196.95 5.94C196.483 5.71333 195.997 5.6 195.49 5.6C194.903 5.6 194.377 5.72667 193.91 5.98C193.457 6.22 193.07 6.54667 192.75 6.96C192.443 7.36 192.203 7.81333 192.03 8.32C191.857 8.82667 191.77 9.33333 191.77 9.84C191.77 10.4 191.87 10.9333 192.07 11.44C192.27 11.9333 192.543 12.38 192.89 12.78C193.25 13.1667 193.663 13.4667 194.13 13.68C194.61 13.8933 195.117 14 195.65 14ZM218.953 15H217.593V9.18C217.593 7.96667 217.4 7.07333 217.013 6.5C216.626 5.92667 216.053 5.64 215.293 5.64C214.506 5.64 213.8 5.92 213.173 6.48C212.56 7.04 212.126 7.76 211.873 8.64V15H210.513V9.18C210.513 7.95333 210.326 7.06 209.953 6.5C209.58 5.92667 209.006 5.64 208.233 5.64C207.46 5.64 206.76 5.91333 206.133 6.46C205.506 7.00667 205.066 7.72667 204.813 8.62V15H203.453V4.58H204.693V6.94C205.133 6.12667 205.693 5.5 206.373 5.06C207.066 4.62 207.833 4.4 208.673 4.4C209.54 4.4 210.24 4.64667 210.773 5.14C211.306 5.63333 211.633 6.28 211.753 7.08C212.233 6.2 212.806 5.53333 213.473 5.08C214.153 4.62667 214.92 4.4 215.773 4.4C216.36 4.4 216.853 4.50667 217.253 4.72C217.666 4.93333 217.993 5.24 218.233 5.64C218.486 6.02667 218.666 6.5 218.773 7.06C218.893 7.60667 218.953 8.22 218.953 8.9V15ZM220.992 12C220.992 11.3467 221.179 10.7867 221.552 10.32C221.925 9.84 222.439 9.47333 223.092 9.22C223.759 8.95333 224.525 8.82 225.392 8.82C225.899 8.82 226.425 8.86 226.972 8.94C227.519 9.02 228.005 9.14 228.432 9.3V8.42C228.432 7.54 228.172 6.84 227.652 6.32C227.132 5.8 226.412 5.54 225.492 5.54C224.932 5.54 224.379 5.64667 223.832 5.86C223.299 6.06 222.739 6.36 222.152 6.76L221.632 5.8C222.312 5.33333 222.979 4.98667 223.632 4.76C224.285 4.52 224.952 4.4 225.632 4.4C226.912 4.4 227.925 4.76667 228.672 5.5C229.419 6.23333 229.792 7.24667 229.792 8.54V13.36C229.792 13.5467 229.832 13.6867 229.912 13.78C229.992 13.86 230.119 13.9067 230.292 13.92V15C230.145 15.0133 230.019 15.0267 229.912 15.04C229.805 15.0533 229.725 15.0533 229.672 15.04C229.339 15.0267 229.085 14.92 228.912 14.72C228.739 14.52 228.645 14.3067 228.632 14.08L228.612 13.32C228.145 13.92 227.539 14.3867 226.792 14.72C226.045 15.04 225.285 15.2 224.512 15.2C223.845 15.2 223.239 15.06 222.692 14.78C222.159 14.4867 221.739 14.1 221.432 13.62C221.139 13.1267 220.992 12.5867 220.992 12ZM227.972 12.8C228.119 12.6133 228.232 12.4333 228.312 12.26C228.392 12.0867 228.432 11.9333 228.432 11.8V10.28C227.979 10.1067 227.505 9.97333 227.012 9.88C226.532 9.78667 226.045 9.74 225.552 9.74C224.579 9.74 223.792 9.93333 223.192 10.32C222.592 10.7067 222.292 11.2333 222.292 11.9C222.292 12.2867 222.392 12.6533 222.592 13C222.792 13.3333 223.085 13.6133 223.472 13.84C223.859 14.0533 224.312 14.16 224.832 14.16C225.485 14.16 226.092 14.0333 226.652 13.78C227.225 13.5267 227.665 13.2 227.972 12.8ZM232.73 15V4.58H234.09V15H232.73ZM232.73 2.4V0.4H234.09V2.4H232.73ZM237.146 0.4H238.506V12.64C238.506 13.16 238.599 13.5 238.786 13.66C238.973 13.82 239.199 13.9 239.466 13.9C239.706 13.9 239.946 13.8733 240.186 13.82C240.426 13.7667 240.633 13.7133 240.806 13.66L241.046 14.76C240.793 14.8667 240.479 14.9533 240.106 15.02C239.746 15.0867 239.433 15.12 239.166 15.12C238.553 15.12 238.059 14.94 237.686 14.58C237.326 14.22 237.146 13.7267 237.146 13.1V0.4ZM242.335 15V13.04H243.515V15H242.335ZM250.454 15.2C249.694 15.2 248.994 15.06 248.354 14.78C247.727 14.4867 247.174 14.0867 246.694 13.58C246.227 13.0733 245.86 12.4933 245.594 11.84C245.34 11.1867 245.214 10.4933 245.214 9.76C245.214 8.77333 245.434 7.87333 245.874 7.06C246.314 6.24667 246.927 5.6 247.714 5.12C248.5 4.64 249.407 4.4 250.434 4.4C251.407 4.4 252.267 4.62667 253.014 5.08C253.76 5.52 254.314 6.12 254.674 6.88L253.354 7.3C253.06 6.76667 252.647 6.35333 252.114 6.06C251.594 5.75333 251.014 5.6 250.374 5.6C249.68 5.6 249.047 5.78 248.474 6.14C247.9 6.5 247.44 6.99333 247.094 7.62C246.76 8.24667 246.594 8.96 246.594 9.76C246.594 10.5467 246.767 11.26 247.114 11.9C247.46 12.54 247.92 13.0533 248.494 13.44C249.067 13.8133 249.7 14 250.394 14C250.847 14 251.28 13.92 251.694 13.76C252.12 13.6 252.487 13.3867 252.794 13.12C253.114 12.84 253.327 12.54 253.434 12.22L254.774 12.62C254.587 13.1133 254.274 13.56 253.834 13.96C253.407 14.3467 252.9 14.6533 252.314 14.88C251.74 15.0933 251.12 15.2 250.454 15.2ZM261.253 15.2C260.506 15.2 259.813 15.06 259.173 14.78C258.546 14.4867 257.999 14.0933 257.533 13.6C257.079 13.0933 256.726 12.52 256.473 11.88C256.219 11.2267 256.093 10.54 256.093 9.82C256.093 9.07333 256.219 8.38 256.473 7.74C256.726 7.08667 257.086 6.51333 257.553 6.02C258.019 5.51333 258.566 5.12 259.193 4.84C259.833 4.54667 260.526 4.4 261.273 4.4C262.019 4.4 262.706 4.54667 263.333 4.84C263.959 5.12 264.506 5.51333 264.973 6.02C265.439 6.51333 265.799 7.08667 266.053 7.74C266.306 8.38 266.433 9.07333 266.433 9.82C266.433 10.54 266.306 11.2267 266.053 11.88C265.799 12.52 265.439 13.0933 264.973 13.6C264.519 14.0933 263.973 14.4867 263.333 14.78C262.706 15.06 262.013 15.2 261.253 15.2ZM257.473 9.84C257.473 10.6133 257.639 11.32 257.973 11.96C258.319 12.5867 258.779 13.0867 259.353 13.46C259.926 13.82 260.559 14 261.253 14C261.946 14 262.579 13.8133 263.153 13.44C263.726 13.0667 264.186 12.56 264.533 11.92C264.879 11.2667 265.053 10.56 265.053 9.8C265.053 9.02667 264.879 8.32 264.533 7.68C264.186 7.04 263.726 6.53333 263.153 6.16C262.579 5.78667 261.946 5.6 261.253 5.6C260.559 5.6 259.926 5.79333 259.353 6.18C258.793 6.56667 258.339 7.08 257.993 7.72C257.646 8.34667 257.473 9.05333 257.473 9.84ZM284.207 15H282.847V9.18C282.847 7.96667 282.654 7.07333 282.267 6.5C281.88 5.92667 281.307 5.64 280.547 5.64C279.76 5.64 279.054 5.92 278.427 6.48C277.814 7.04 277.38 7.76 277.127 8.64V15H275.767V9.18C275.767 7.95333 275.58 7.06 275.207 6.5C274.834 5.92667 274.26 5.64 273.487 5.64C272.714 5.64 272.014 5.91333 271.387 6.46C270.76 7.00667 270.32 7.72667 270.067 8.62V15H268.707V4.58H269.947V6.94C270.387 6.12667 270.947 5.5 271.627 5.06C272.32 4.62 273.087 4.4 273.927 4.4C274.794 4.4 275.494 4.64667 276.027 5.14C276.56 5.63333 276.887 6.28 277.007 7.08C277.487 6.2 278.06 5.53333 278.727 5.08C279.407 4.62667 280.174 4.4 281.027 4.4C281.614 4.4 282.107 4.50667 282.507 4.72C282.92 4.93333 283.247 5.24 283.487 5.64C283.74 6.02667 283.92 6.5 284.027 7.06C284.147 7.60667 284.207 8.22 284.207 8.9V15Z" fill="black"/>
</svg>
