<svg width="14" height="16" viewBox="0 0 14 16" fill="none" xmlns="http://www.w3.org/2000/svg">
<path d="M7.4 15.1C6.46667 15.1 5.59333 14.9 4.78 14.5C3.98 14.0867 3.28 13.54 2.68 12.86C2.08 12.1667 1.61333 11.3933 1.28 10.54C0.946667 9.67333 0.78 8.78 0.78 7.86C0.78 6.9 0.946667 5.99333 1.28 5.14C1.61333 4.27333 2.07333 3.50667 2.66 2.84C3.26 2.17333 3.96 1.65333 4.76 1.28C5.57333 0.893333 6.45333 0.699999 7.4 0.699999C8.77333 0.699999 9.90667 0.986666 10.8 1.56C11.6933 2.13333 12.3667 2.88 12.82 3.8L11.44 4.76C11.0267 3.93333 10.46 3.32 9.74 2.92C9.02 2.52 8.22667 2.32 7.36 2.32C6.64 2.32 5.98667 2.47333 5.4 2.78C4.81333 3.08667 4.30667 3.50667 3.88 4.04C3.46667 4.56 3.14667 5.15333 2.92 5.82C2.70667 6.48667 2.6 7.18 2.6 7.9C2.6 8.66 2.72 9.38 2.96 10.06C3.21333 10.7267 3.56667 11.32 4.02 11.84C4.47333 12.3467 5 12.7467 5.6 13.04C6.2 13.3333 6.84667 13.48 7.54 13.48C8.35333 13.48 9.12667 13.2733 9.86 12.86C10.5933 12.4467 11.2867 11.8133 11.94 10.96V12.82C10.66 14.34 9.14667 15.1 7.4 15.1ZM11.72 9.28H8.66V7.92H13.24V15H11.72V9.28Z" fill="#1F1F1F"/>
</svg>
